<?xml version="1.0" encoding="utf-8"?>
<!-- Generator: Adobe Illustrator 23.0.4, SVG Export Plug-In . SVG Version: 6.00 Build 0)  -->
<svg version="1.1" xmlns="http://www.w3.org/2000/svg" xmlns:xlink="http://www.w3.org/1999/xlink" x="0px" y="0px"
	 viewBox="0 0 38.97 38.97" style="enable-background:new 0 0 38.97 38.97;" xml:space="preserve">
<style type="text/css">
	.st0{display:none;}
	.st1{display:inline;fill:#558745;}
	.st2{display:inline;fill:#FFFFFF;}
	.st3{font-family:'Avenir-Roman';}
	.st4{font-size:24.4855px;}
	.st5{display:inline;}
	.st6{fill:#FFFFFF;}
	.st7{font-size:4.5279px;}
	.st8{display:inline;fill:#6FAF60;}
	.st9{display:inline;fill:none;stroke:#FFFFFF;stroke-width:0.75;stroke-miterlimit:10;}
	.st10{font-family:'ChubGothic';}
	.st11{font-size:4.7993px;}
	.st12{display:inline;fill:#324F26;}
	.st13{font-size:4.5858px;}
	.st14{fill:#9E1F63;}
	.st15{fill:#661443;}
	.st16{fill:#7B623F;}
	.st17{fill:#B62C7B;}
</style>
<g id="Layer_1" class="st0">
	<circle class="st1" cx="19.48" cy="19.48" r="19.48"/>
	<text transform="matrix(1.0153 0 0 1 10.6478 20.2434)" class="st2 st3 st4">+</text>
	<text transform="matrix(1.0153 0 0 1 8.3705 26.1624)" class="st5"><tspan x="0" y="0" class="st6 st3 st7">    ADD </tspan><tspan x="0" y="5.43" class="st6 st3 st7">PRODUCT</tspan></text>
</g>
<g id="Layer_2" class="st0">
	<circle class="st1" cx="19.04" cy="19.52" r="19.48"/>
	<g id="VIJSv9_5_" class="st5">
		<g>
			<path class="st6" d="M27.07,9.5v9.27c0,0.22-0.18,0.4-0.4,0.4c-0.03,0-0.06,0-0.1,0c-5.35,0-10.71,0-16.06,0.01
				c-0.41,0-0.53-0.11-0.53-0.52c0.02-3.02,0.01-6.04,0-9.06c0-0.33,0.03-0.52,0.45-0.51C15.84,9.1,21.26,9.1,26.67,9.1c0,0,0,0,0,0
				C26.9,9.1,27.07,9.28,27.07,9.5z M18.51,10.31c-1.57,0-3.14,0-4.71,0c-0.63,0-0.84,0.18-0.94,0.81c-0.08,0.51-0.4,0.82-0.93,0.88
				c-0.48,0.05-0.78,0.37-0.79,0.84c0,0.87,0,1.73,0,2.6c0,0.43,0.27,0.76,0.67,0.85c0.54,0.12,0.95,0.56,1.08,1.1
				c0.1,0.4,0.35,0.59,0.81,0.59c3.21,0,6.43,0,9.64,0c0.46,0,0.78-0.28,0.86-0.72c0.1-0.58,0.24-0.77,0.72-0.89
				c0.57-0.14,0.96-0.66,0.96-1.25c0-0.74,0-1.48,0-2.22c0-0.54-0.23-0.8-0.78-0.9c-0.56-0.09-0.8-0.34-0.89-0.9
				c-0.08-0.51-0.39-0.78-0.9-0.78C21.71,10.31,20.11,10.31,18.51,10.31z"/>
			<path class="st6" d="M18.74,16.78c-0.93-0.04-1.61-0.19-2.21-0.66c-1.45-1.15-1.37-3.02,0.18-4.08c1.03-0.71,2.71-0.67,3.73,0.07
				c0.83,0.61,1.24,1.4,1.08,2.44c-0.16,1-0.83,1.6-1.71,1.97C19.42,16.69,18.97,16.72,18.74,16.78z"/>
			<path class="st6" d="M24.6,14.17c-0.01,0.53-0.49,0.97-1.04,0.96c-0.46-0.01-0.93-0.5-0.93-0.98c0-0.54,0.46-0.98,1.02-0.97
				C24.18,13.2,24.61,13.64,24.6,14.17z"/>
			<path class="st6" d="M13.45,13.19c0.55,0,0.97,0.41,0.97,0.96c0,0.53-0.44,0.98-0.97,0.98c-0.52,0-0.97-0.46-0.97-0.98
				C12.49,13.59,12.9,13.18,13.45,13.19z"/>
		</g>
	</g>
	<text transform="matrix(1.0153 0 0 1 7.4099 25.9773)" class="st5"><tspan x="0" y="0" class="st6 st3 st7"> MANAGE </tspan><tspan x="0" y="5.43" class="st6 st3 st7">PAYMENTS</tspan></text>
</g>
<g id="Layer_3" class="st0">
	<circle class="st8" cx="19.24" cy="19.5" r="19.48"/>
	<path class="st9" d="M21.03,7.57c0,0-1.47,2.28-2.95,2.6s-4.92,0.78-4.84,3.54c0.08,2.76,2.32,5,6.36,3.54
		c4.04-1.46,3.49-7.61,3.49-7.61S23.78,5.47,21.03,7.57z"/>
	<path class="st2" d="M22.36,6.94c0,0,0.82-1.03,1.12-1.4s2.12-0.52,2.12-0.52l-0.17,0.6c0,0-1.53,0.03-1.69,0.35
		s-0.53,1.82-0.53,1.82L22.36,6.94z"/>
	<text transform="matrix(1.0153 0 0 1 7.4468 25.6364)" class="st5"><tspan x="0" y="0" class="st6 st3 st7"> MANAGE </tspan><tspan x="0" y="5.43" class="st6 st3 st7">PRODUCTS</tspan></text>
</g>
<g id="Layer_4" class="st0">
	<circle class="st8" cx="19.11" cy="19.48" r="19.41"/>
	<g class="st5">
		<text transform="matrix(1.0153 0 0 1 6.3592 30.44)" class="st6 st3 st7">FAVORITES</text>
	</g>
	<g id="BoHQQn.tif_2_" class="st5">
		<g>
			<path class="st6" d="M10.01,13.34c0.39-0.11,0.79-0.36,1.16-0.32c1.54,0.2,2.74-0.32,3.85-1.36c0.91-0.85,1.99-1.52,2.93-2.34
				c0.51-0.45,0.95-1.01,1.33-1.58c0.56-0.87,1.62-0.92,2.16-0.02c0.37,0.61,0.55,1.31,0.31,2c-0.24,0.7-0.62,1.36-0.95,2.02
				c-0.09,0.18-0.22,0.34-0.4,0.6c0.53,0,0.97,0,1.4,0c1.33,0,2.02,0.8,1.86,2.11c-0.02,0.16,0.07,0.39,0.18,0.5
				c0.82,0.76,0.86,2.05,0.09,2.85c-0.14,0.14-0.25,0.38-0.25,0.57c0.03,0.81-0.18,1.49-0.84,1.88c-0.04,0.49-0.02,0.92-0.13,1.31
				c-0.16,0.62-0.58,1.1-1.25,1.11c-1.64,0.04-3.28,0.07-4.92-0.02c-1.42-0.08-2.44-0.94-3.32-2.01c-0.15-0.19-0.45-0.33-0.7-0.35
				c-0.52-0.05-1.04-0.04-1.56-0.01c-0.43,0.03-0.74-0.11-0.98-0.46C10.01,17.67,10.01,15.5,10.01,13.34z M18.28,21.64
				c0.03-0.48,0.06-0.96,0.09-1.46c-0.58-0.42-0.94-1.04-0.69-1.77c0.19-0.58-0.01-0.93-0.33-1.25c-0.52,0.22-0.97,0.42-1.44,0.59
				c-0.3,0.11-0.66,0.19-0.75-0.24c-0.08-0.4,0.28-0.42,0.56-0.49c1.26-0.32,2-1.28,1.95-2.58c-0.03-0.91,0.25-1.59,1.15-1.91
				c0.1-0.04,0.21-0.12,0.27-0.21c0.52-0.74,1.06-1.47,1.53-2.24c0.3-0.49,0.37-1.07,0.15-1.62c-0.08-0.19-0.27-0.38-0.45-0.44
				c-0.1-0.03-0.34,0.2-0.42,0.36c-0.46,0.92-1.1,1.66-2.01,2.18c-0.45,0.25-0.84,0.62-1.24,0.94c-0.92,0.74-1.81,1.51-2.74,2.22
				c-0.22,0.17-0.56,0.26-0.84,0.27c-0.68,0.04-1.37,0.01-2.05,0.01c0,1.8,0,3.51,0,5.26c0.64,0,1.24,0.03,1.83-0.01
				c0.45-0.03,0.74,0.12,1,0.51 M20.89,17.17c0.66,0,1.31-0.01,1.96,0c0.51,0.01,0.62-0.31,0.62-0.71c0.01-0.41-0.05-0.8-0.59-0.8
				c-1.33-0.01-2.66,0-3.99,0c-0.53,0-0.64,0.38-0.64,0.78c0,0.4,0.12,0.76,0.67,0.74C19.58,17.16,20.24,17.17,20.89,17.17z
				 M20.61,14.85c0.46,0,0.93-0.02,1.39,0c0.54,0.03,0.67-0.3,0.66-0.73c-0.01-0.41-0.09-0.79-0.62-0.79c-0.93,0-1.85,0-2.78,0
				c-0.54,0-0.65,0.38-0.64,0.78c0,0.4,0.12,0.77,0.67,0.75C19.72,14.84,20.16,14.85,20.61,14.85z M20.66,19.46
				c0.46,0,0.93,0,1.39,0c0.53,0,0.62-0.37,0.62-0.79c0-0.41-0.11-0.72-0.62-0.71c-0.92,0.01-1.85,0.02-2.78,0
				c-0.54-0.01-0.66,0.34-0.66,0.74c0,0.41,0.14,0.77,0.67,0.76C19.73,19.45,20.2,19.46,20.66,19.46z M20.47,21.71
				c0.25,0,0.5-0.01,0.75,0c0.51,0.01,0.61-0.34,0.62-0.72c0.01-0.39-0.09-0.74-0.59-0.74c-0.46,0-0.92,0-1.38,0
				c-0.52-0.01-0.71,0.29-0.71,0.77c0,0.49,0.22,0.75,0.74,0.7C20.09,21.69,20.28,21.71,20.47,21.71z"/>
		</g>
	</g>
</g>
<g id="Layer_5" class="st0">
	<circle class="st1" cx="19.31" cy="19.5" r="19.41"/>
	<text transform="matrix(1.0153 0 0 1 8.662 29.8905)" class="st2 st10 st11"> BASKET</text>
	<path class="st2" d="M21.42,6.94c0.42,0,0.83,0.02,1.24-0.01c0.4-0.03,0.62,0.14,0.78,0.5c0.58,1.28,1.18,2.54,1.77,3.82
		c0.07,0.16,0.16,0.21,0.33,0.21c0.5-0.01,1.01-0.01,1.51,0c0.57,0,0.85,0.42,0.64,0.94c-0.93,2.31-1.86,4.61-2.78,6.92
		c-0.13,0.32-0.35,0.47-0.69,0.47c-3.5,0-7,0-10.51,0c-0.34,0-0.57-0.15-0.7-0.47c-0.93-2.31-1.86-4.61-2.78-6.92
		c-0.22-0.53,0.07-0.95,0.65-0.95c0.51,0,1.02-0.01,1.53,0c0.15,0,0.22-0.05,0.28-0.18c0.6-1.3,1.21-2.59,1.81-3.9
		c0.14-0.32,0.35-0.46,0.7-0.45c0.45,0.02,0.9,0,1.34,0c0.08-0.44,0.1-0.46,0.55-0.46c1.29,0,2.59,0,3.88,0
		C21.33,6.48,21.39,6.54,21.42,6.94z M13.81,11.45c3.44,0,6.86,0,10.27,0c0-0.03,0-0.05,0-0.06c-0.5-1.09-1-2.18-1.5-3.27
		c-0.02-0.05-0.08-0.1-0.13-0.11c-0.35-0.01-0.69,0-1.03,0c-0.04,0.44-0.08,0.48-0.48,0.48c-1.29,0-2.57,0-3.86,0
		c-0.47,0-0.47,0-0.55-0.48c-0.32,0-0.64,0.01-0.97,0C15.42,8,15.35,8.04,15.29,8.18c-0.47,1.03-0.94,2.05-1.41,3.08
		C13.85,11.31,13.84,11.37,13.81,11.45z M16.11,18.53c0.83,0,1.65,0,2.48,0c0-0.5,0-0.98,0-1.47c-0.83,0-1.65,0-2.48,0
		C16.11,17.55,16.11,18.03,16.11,18.53z M18.6,14.21c0-0.49,0-0.98,0-1.49c-0.84,0-1.66,0-2.48,0c0,0.51,0,0.99,0,1.49
		C16.95,14.21,17.77,14.21,18.6,14.21z M16.11,16.32c0.84,0,1.65,0,2.48,0c0-0.47,0-0.92,0-1.38c-0.83,0-1.65,0-2.48,0
		C16.11,15.41,16.11,15.85,16.11,16.32z M21.45,17.06c-0.72,0-1.42,0-2.12,0c0,0.5,0,0.98,0,1.47c0.72,0,1.41,0,2.12,0
		C21.45,18.03,21.45,17.56,21.45,17.06z M19.31,14.22c0.67,0,1.29-0.01,1.92,0c0.17,0,0.23-0.03,0.23-0.21
		c-0.01-0.28,0.02-0.57,0.03-0.85c0-0.14,0-0.29,0-0.44c-0.75,0-1.46,0-2.18,0C19.31,13.23,19.31,13.72,19.31,14.22z M22.17,12.72
		c0,0.49,0,0.98,0,1.47c0.71,0,1.4,0,2.1,0c0-0.5,0-0.98,0-1.47C23.57,12.72,22.88,12.72,22.17,12.72z M22.17,18.55
		c0.28,0,0.54,0,0.79,0c0.29,0,0.66,0.1,0.86-0.04c0.21-0.15,0.28-0.52,0.37-0.8c0.07-0.2,0.08-0.42,0.11-0.64
		c-0.75,0-1.45,0-2.14,0C22.17,17.56,22.17,18.04,22.17,18.55z M19.33,14.93c0,0.48,0,0.93,0,1.39c0.72,0,1.41,0,2.11,0
		c0-0.47,0-0.92,0-1.39C20.73,14.93,20.03,14.93,19.33,14.93z M24.28,14.94c-0.71,0-1.4,0-2.1,0c0,0.47,0,0.93,0,1.38
		c0.71,0,1.4,0,2.1,0C24.28,15.85,24.28,15.4,24.28,14.94z M13.6,12.72c0,0.51,0,0.99,0,1.47c0.6,0,1.19,0,1.78,0
		c0-0.5,0-0.98,0-1.47C14.78,12.72,14.2,12.72,13.6,12.72z M15.38,18.55c0-0.52,0-1,0-1.49c-0.65,0-1.28,0-1.94,0
		c0.19,0.48,0.38,0.94,0.57,1.39c0.02,0.04,0.09,0.09,0.13,0.1C14.55,18.55,14.96,18.55,15.38,18.55z M15.38,16.33
		c0-0.48,0-0.93,0-1.39c-0.6,0-1.19,0-1.78,0c0,0.47,0,0.93,0,1.39C14.2,16.33,14.78,16.33,15.38,16.33z M25,14.18
		c0.03,0.01,0.03,0.02,0.04,0.02c0.55,0.07,0.55,0.07,0.76-0.43c0.14-0.34,0.27-0.68,0.42-1.04c-0.42,0-0.81,0-1.21,0
		C25,13.22,25,13.69,25,14.18z M12.86,14.21c0-0.52,0-1,0-1.48c-0.39,0-0.76,0-1.16,0c0.19,0.48,0.37,0.94,0.56,1.39
		c0.02,0.04,0.09,0.08,0.14,0.09C12.54,14.22,12.69,14.21,12.86,14.21z M25.01,15.62c0.01,0,0.03,0.01,0.04,0.01
		c0.09-0.23,0.18-0.45,0.28-0.7c-0.13,0-0.22,0-0.32,0C25.01,15.17,25.01,15.4,25.01,15.62z M12.58,14.93
		c0.09,0.22,0.17,0.41,0.24,0.6c0.01,0,0.02-0.01,0.03-0.01c0-0.19,0-0.39,0-0.59C12.77,14.93,12.7,14.93,12.58,14.93z"/>
</g>
<g id="Layer_6" class="st0">
	<ellipse class="st12" cx="19.32" cy="19.56" rx="19.52" ry="19.39"/>
	<g class="st5">
		<text transform="matrix(1.0153 0 0 1 9.266 29.841)" class="st6 st3 st13">SETTINGS</text>
	</g>
	<g id="Pz3afx_5_" class="st5">
		<g>
			<path class="st6" d="M19.16,8.07c0.55,0,1.1,0,1.65,0c0.46,0.17,0.68,0.5,0.71,0.98c0.01,0.2,0.06,0.4,0.11,0.59
				c0.02,0.08,0.1,0.16,0.18,0.21c0.59,0.39,1.14,0.35,1.62-0.18c0.01-0.02,0.04-0.02,0.05-0.03c0.4-0.25,0.78-0.23,1.13,0.09
				c0.28,0.26,0.54,0.53,0.81,0.8c0.43,0.44,0.5,0.86,0.09,1.31c-0.46,0.5-0.52,0.98-0.15,1.53c0.06,0.09,0.16,0.18,0.26,0.21
				c0.17,0.05,0.35,0.07,0.53,0.09c0.47,0.04,0.81,0.25,1,0.69c0,0.55,0,1.1,0,1.65c-0.15,0.45-0.45,0.69-0.93,0.73
				c-0.21,0.02-0.42,0.06-0.63,0.1c-0.24,0.04-0.63,0.95-0.49,1.15c0.14,0.2,0.28,0.4,0.42,0.6c0.35,0.5,0.32,0.88-0.12,1.33
				c-0.13,0.14-0.27,0.27-0.4,0.4c-0.85,0.85-1,0.87-1.97,0.15c-0.26-0.19-0.44-0.2-0.75-0.1c-0.52,0.16-0.71,0.46-0.72,0.97
				c-0.01,0.49-0.25,0.87-0.75,1.02c-0.55,0-1.1,0-1.65,0c-0.44-0.19-0.65-0.53-0.69-1c-0.01-0.18-0.03-0.36-0.08-0.53
				c-0.03-0.1-0.12-0.2-0.21-0.26c-0.53-0.36-1.02-0.32-1.47,0.16c-0.06,0.07-0.15,0.12-0.23,0.16c-0.31,0.17-0.71,0.14-0.98-0.11
				c-0.35-0.32-0.68-0.66-1.01-1.01c-0.08-0.09-0.13-0.22-0.16-0.33c-0.13-0.43,0.11-0.74,0.36-1.03c0.29-0.33,0.34-0.61,0.14-1.03
				c-0.17-0.37-0.35-0.53-0.75-0.56c-0.52-0.03-1.01-0.17-1.2-0.74c0-0.55,0-1.1,0-1.65c0.17-0.46,0.5-0.68,0.98-0.71
				c0.2-0.01,0.4-0.06,0.59-0.11c0.08-0.02,0.17-0.09,0.2-0.15c0.37-0.82,0.37-0.82-0.15-1.55c-0.02-0.03-0.05-0.07-0.07-0.1
				c-0.27-0.41-0.24-0.83,0.1-1.18c0.28-0.29,0.56-0.57,0.85-0.85c0.36-0.34,0.76-0.37,1.18-0.09c0.13,0.09,0.28,0.17,0.38,0.28
				c0.26,0.26,0.49,0.22,0.83,0.11c0.46-0.16,0.65-0.42,0.67-0.88C18.45,8.68,18.64,8.26,19.16,8.07z M14.99,11.22
				c0.27,0.38,0.5,0.71,0.74,1.04c0.15,0.2,0.15,0.39,0.04,0.62c-0.17,0.34-0.31,0.69-0.43,1.05c-0.08,0.27-0.24,0.4-0.51,0.44
				c-0.3,0.04-0.6,0.1-0.91,0.14c-0.19,0.03-0.27,0.11-0.26,0.31c0.02,0.28,0.02,0.57,0,0.86c-0.02,0.24,0.1,0.31,0.3,0.34
				c0.29,0.04,0.58,0.1,0.88,0.14c0.27,0.04,0.43,0.16,0.51,0.43c0.11,0.35,0.26,0.69,0.43,1.02c0.13,0.25,0.14,0.44-0.03,0.67
				c-0.2,0.26-0.39,0.53-0.57,0.8c-0.04,0.07-0.07,0.22-0.03,0.26c0.28,0.31,0.58,0.6,0.88,0.9c0.38-0.26,0.7-0.52,1.06-0.73
				c0.14-0.08,0.36-0.09,0.52-0.04c0.39,0.12,0.77,0.28,1.14,0.47c0.15,0.07,0.29,0.24,0.34,0.39c0.1,0.33,0.15,0.68,0.19,1.03
				c0.02,0.18,0.09,0.24,0.26,0.23c0.32-0.01,0.63-0.01,0.95,0c0.17,0,0.24-0.06,0.26-0.23c0.04-0.33,0.13-0.66,0.17-1
				c0.03-0.25,0.16-0.36,0.38-0.45c0.37-0.14,0.75-0.29,1.11-0.46c0.21-0.1,0.39-0.11,0.59,0.04c0.27,0.21,0.56,0.39,0.82,0.59
				c0.14,0.11,0.23,0.1,0.35-0.03c0.22-0.23,0.44-0.46,0.67-0.67c0.13-0.12,0.13-0.21,0.03-0.35c-0.2-0.26-0.37-0.54-0.57-0.8
				c-0.16-0.21-0.17-0.41-0.04-0.64c0.13-0.25,0.29-0.51,0.35-0.78c0.1-0.52,0.39-0.7,0.89-0.75c0.89-0.09,0.89-0.12,0.89-1
				c0-0.1-0.01-0.19,0-0.29c0.01-0.17-0.04-0.27-0.24-0.29c-0.33-0.04-0.66-0.13-1-0.17c-0.25-0.03-0.36-0.17-0.44-0.39
				c-0.13-0.37-0.28-0.73-0.44-1.08c-0.11-0.22-0.12-0.41,0.04-0.62c0.21-0.27,0.4-0.54,0.58-0.83c0.05-0.07,0.05-0.23,0-0.29
				c-0.27-0.3-0.55-0.58-0.85-0.88c-0.36,0.26-0.68,0.52-1.04,0.72c-0.15,0.08-0.38,0.09-0.55,0.04c-0.4-0.13-0.79-0.29-1.17-0.48
				c-0.15-0.07-0.31-0.23-0.35-0.38c-0.1-0.32-0.13-0.66-0.18-1c-0.02-0.2-0.1-0.28-0.31-0.27c-0.3,0.01-0.59,0.02-0.89,0
				c-0.21-0.01-0.28,0.09-0.3,0.27c-0.05,0.31-0.11,0.62-0.15,0.94c-0.03,0.25-0.15,0.39-0.39,0.48c-0.38,0.13-0.75,0.29-1.11,0.46
				c-0.22,0.11-0.4,0.1-0.59-0.04c-0.28-0.21-0.56-0.41-0.86-0.6c-0.07-0.04-0.22-0.03-0.28,0.02
				C15.57,10.66,15.3,10.93,14.99,11.22z"/>
			<path class="st6" d="M16.93,15.18c0-1.67,1.4-3.05,3.1-3.04c1.7,0.01,3.06,1.39,3.07,3.11c0,1.67-1.4,3.06-3.08,3.06
				C18.3,18.3,16.93,16.91,16.93,15.18z M20.02,17.5c1.25-0.01,2.28-1.02,2.28-2.25c0-1.29-1.01-2.31-2.29-2.31
				c-1.25,0-2.28,1.03-2.27,2.25C17.74,16.49,18.75,17.51,20.02,17.5z"/>
		</g>
	</g>
</g>
<g id="Layer_7">
	<path class="st14" d="M20.72,13.4c0,0-10.5-0.24-14.61,5.69s1.13,10.45,5.46,11.44c4.33,0.98,12.7-9.2,12.7-9.2l6.77-7.08
		c0,0,3.02-2.35,1.48-3.79C30.97,9.01,32.3,6.8,20.72,13.4z"/>
	<path class="st15" d="M5.13,25.69c0,0,4.34,3.27,5.86,3.11s7.03-3.55,7.92-4.41c0.89-0.87,6-6.34,7.33-7.28
		c1.33-0.94,4.81-4.84,5.01-5.5s-1.42-0.84-1.42-0.84s1.64-0.23,1.49-0.79c-0.14-0.56-0.36-1.24-0.36-1.24s1.18,1.49,1.55,1.71
		c0.37,0.22,0.81,0.86-1.02,3.1c-1.83,2.23-7.23,7.78-7.23,7.78l-6.43,6.25c0,0-3.72,3.11-5,3.03s-2.99-0.49-4.5-1.36
		S5.13,25.69,5.13,25.69l1.49,2"/>
	<path class="st15" d="M29.48,11.52l-4.57,2.98C24.91,14.51,29.52,10.92,29.48,11.52z"/>
	<path class="st15" d="M29.49,12.62l-5.5,4.48C23.99,17.09,29.41,13.14,29.49,12.62z"/>
	<path class="st15" d="M28.98,10.21l-5.01,3.06C23.97,13.27,28.76,9.33,28.98,10.21z"/>
	<path class="st16" d="M32.52,10.45c0,0,1.26-2.35,2.43-1.99c1.17,0.36,2.5,0.99,2.5,0.99L38,8.68c0,0-2.33-0.85-2.6-0.93
		s-1.46,0.05-2.01,0.23c-0.55,0.18-1.8,1.51-1.8,1.51S32.05,10.76,32.52,10.45z"/>
	<path class="st17" d="M15.99,14.98c0,0-7.02,0.82-8.87,3.76s-1.81,5.97-1.14,6.18c0.66,0.2,2.82,2.13,4.56,0.9
		c1.74-1.22,4.78-4.36,5.29-6.03c0.51-1.68,0.65-3.22,2.11-4.05c1.46-0.83,3.49-1.41,3.49-1.41L15.99,14.98z"/>
</g>
<g id="Layer_8">
</g>
<g id="Layer_9">
</g>
<g id="Layer_10">
</g>
<g id="Layer_11">
</g>
<g id="Layer_12">
</g>
<g id="Layer_13">
</g>
<g id="Layer_14">
</g>
<g id="Layer_15">
</g>
</svg>
